<svg xmlns="http://www.w3.org/2000/svg" xml:space="preserve" width="136.02" height="136.02" viewBox="0 0 160 160">
  <g transform="translate(-3.91 -1.22) scale(0.735)">
    <path fill="#01579b" d="M31.65 109.5 8.38 86.23a15.78 15.78 0 0 1-4.47-10.74c0-1.81 1.02-4.64 1.79-6.26l21.48-44.74Z"/>
    <path fill="#40c4ff" d="M111.3 28.96 88.03 5.69C86 3.65 81.77 1.22 78.19 1.22c-3.08 0-6.1.62-8.05 1.79L27.19 24.49Zm-76.07 84.12 24.16 24.16h56.38v-24.16L73.71 99.65z"/>
    <path fill="#29b6f6" d="M27.18 96.97c0 7.18.9 8.94 4.47 12.53l3.58 3.58h80.54L76.4 68.34 27.18 24.49Z"/>
    <path fill="#01579b" d="M98.77 24.48H27.18l88.59 88.59h24.16V57.59l-28.64-28.64c-4.02-4.03-7.59-4.47-12.52-4.47z"/>
    <path fill="#fff" d="M32.55 110.39c-3.58-3.59-4.47-7.13-4.47-13.42V25.38l-.89-.89v72.48c-.01 6.29-.01 8.03 5.36 13.42l2.68 2.68z" opacity=".2"/>
    <path fill="#263238" d="M139.93 113.08V57.59l-.89-.89v55.48h-24.16l.89.9z" opacity=".2"/>
    <path fill="#fff" d="M111.3 28.96c-4.44-4.44-8.07-4.47-13.42-4.47H27.19l.89.89h69.8c2.67 0 9.41-.45 13.42 3.58z" opacity=".2"/>
    <radialGradient id="a" cx="71.92" cy="62.22" r="68" gradientTransform="matrix(1 0 0 -1 0 131.44)" gradientUnits="userSpaceOnUse">
      <stop offset="0" style="stop-color:#fff;stop-opacity:.1"/>
      <stop offset="1" style="stop-color:#fff;stop-opacity:0"/>
    </radialGradient>
    <path fill="url(#a)" d="M139.04 56.7 111.3 28.96 88.03 5.69C86 3.65 81.77 1.22 78.19 1.22c-3.08 0-6.1.62-8.05 1.79L27.19 24.49 5.71 69.23c-.77 1.63-1.79 4.46-1.79 6.26 0 3.91 1.72 7.9 4.47 10.74l21.44 21.29c.51.63 1.11 1.27 1.82 1.98l.89.89 2.68 2.68 23.27 23.27.89.89h56.37v-24.16h24.16V57.59z" opacity=".2" style="fill:url(#a)"/>
  </g>
</svg>
