<svg width="64" height="64" viewBox="0 0 64 64" version="1.1" id="svg1" xmlns="http://www.w3.org/2000/svg" xmlns:svg="http://www.w3.org/2000/svg"><path d="M23.22 43.84q-4.88 0-8.38-2.59-3.5-2.59-5.39-6.8-1.89-4.2-1.89-9.04 0-3.91 1.27-7.43 1.26-3.51 3.58-6.23 2.31-2.72 5.48-4.27 3.17-1.54 6.98-1.54 3.82 0 6.75 1.54 2.94 1.55 4.93 4.18 1.98 2.62 2.98 5.92 1 3.29 1 6.83 0 3.9-1.36 7.4-1.36 3.5-3.76 6.22-2.41 2.72-5.55 4.27-3.14 1.54-6.64 1.54Zm1.28-3.87q3.75 0 6.17-3.7 2.42-3.71 2.42-11.33 0-3.97-1.22-7.46-1.21-3.48-3.4-5.64-2.19-2.15-5.1-2.15-4.09 0-6.23 3.94Q15 17.56 15 24.59q0 4.29 1.3 7.77 1.29 3.48 3.45 5.55 2.16 2.06 4.75 2.06Z" style="fill:#a00"/><path d="M57.03 12.94q-3.97.81-3.97 1.78v27.06q0 4.22-1.09 6.89t-2.67 4.38q-1.58 1.7-3.08 2.92-1.56 1.22-3.77 2.16-2.2.93-4.17.93-1.72 0-3.33-.51-1.61-.52-2.64-1.17-1.03-.66-1.03-1.1 0-.31.6-1.01.59-.71 1.45-1.5.86-.8 1.67-1.41.81-.61 1.22-.77 1.59 1.41 2.95 1.99 1.36.58 2.46.58 1 0 1.93-.71.94-.7 1.55-2.89.61-2.18.61-6.65V14.72q0-.34-.97-.81-.97-.47-4.41-.97v-2.16h16.69Z" style="fill:#000"/></svg>